<svg version="1.1" id="Layer_1" xmlns="http://www.w3.org/2000/svg" xmlns:xlink="http://www.w3.org/1999/xlink" x="0px" y="0px"
	 width="100%" viewBox="0 0 1254 1254" enable-background="new 0 0 1254 1254" xml:space="preserve">
<path fill="#091A31" opacity="1.000000" stroke="none" 
	d="
M0.999980,1068.000000 
	C1.000000,774.637329 1.000000,481.274597 1.383423,187.385498 
	C2.168195,186.028168 2.751522,185.237091 2.943439,184.360306 
	C5.587101,172.282684 7.543110,160.013931 10.902245,148.141327 
	C19.914192,116.289330 37.343494,89.114578 59.682983,65.098274 
	C67.089363,57.135960 75.652229,50.096153 84.362823,43.532288 
	C102.225342,30.071993 121.821259,19.602423 143.082932,12.493103 
	C157.073822,7.814929 171.300293,4.043027 186.107391,2.895603 
	C187.114517,2.817560 188.037750,1.657068 189.000000,0.999998 
	C481.362701,1.000000 773.725403,1.000000 1066.625977,1.390301 
	C1068.007446,2.169686 1068.813721,2.734846 1069.699829,2.921483 
	C1083.440430,5.815485 1097.475098,7.711626 1110.879395,11.719225 
	C1136.765015,19.458420 1159.900269,32.978718 1180.393921,50.366028 
	C1191.540039,59.822796 1201.485107,70.909073 1210.861938,82.183571 
	C1222.564819,96.254837 1231.273560,112.337219 1238.633545,129.139923 
	C1245.198242,144.126892 1249.744263,159.625992 1252.131592,175.808090 
	C1252.450073,177.966141 1254.013306,179.940552 1255.000000,182.000000 
	C1255.000000,182.444443 1255.000000,182.888885 1254.702393,183.690445 
	C1254.603271,184.698380 1254.801636,185.349197 1255.000000,186.000015 
	C1255.000000,481.362701 1255.000000,776.725403 1254.626953,1072.605469 
	C1253.542114,1074.903687 1252.605225,1076.629639 1252.155762,1078.474487 
	C1249.460327,1089.536743 1247.471313,1100.808228 1244.143677,1111.672119 
	C1234.630005,1142.731812 1216.931396,1168.988892 1194.933960,1192.492920 
	C1183.993042,1204.183228 1171.068359,1213.471802 1157.716797,1222.240723 
	C1133.864136,1237.906250 1107.513062,1246.859619 1079.711182,1252.175903 
	C1077.379395,1252.621826 1075.232666,1254.035645 1073.000000,1255.000000 
	C776.970642,1255.000000 480.941254,1255.000000 184.385529,1254.623047 
	C183.030731,1253.827148 182.245560,1253.239136 181.367508,1253.014893 
	C167.589752,1249.497559 153.582169,1246.708374 140.064178,1242.385864 
	C119.820496,1235.912842 101.628647,1225.329224 84.622116,1212.520752 
	C72.359947,1203.285645 60.860573,1193.291382 51.113388,1181.490356 
	C37.746197,1165.306396 26.313740,1147.834961 18.102192,1128.387939 
	C10.311807,1109.938110 4.438377,1091.007568 2.890158,1070.904785 
	C2.812315,1069.894043 1.654777,1068.966431 0.999980,1068.000000 
M257.094818,429.075043 
	C257.094818,429.075043 257.124756,429.166748 257.663239,428.817871 
	C257.950012,428.245697 258.236816,427.673523 259.001617,426.678986 
	C268.282959,413.259613 277.564301,399.840240 287.384644,386.104065 
	C407.611053,239.051407 565.901917,178.891220 750.823730,181.837540 
	C751.159241,181.937698 750.097290,181.555801 749.005371,181.304047 
	C698.049438,169.554581 646.593140,166.116135 594.660095,172.781662 
	C484.868469,186.873245 389.543976,231.331863 310.380310,309.242737 
	C289.918427,329.380829 271.466125,351.273438 254.867355,375.581360 
	C253.824051,377.068909 252.697403,378.505432 251.750504,380.052032 
	C243.454895,393.601257 235.191360,407.170105 226.482178,421.010742 
	C226.377823,421.328461 226.273468,421.646179 225.896362,422.262299 
	C225.896362,422.262299 225.863770,422.665222 225.321487,423.112762 
	C222.587311,428.409546 219.853119,433.706299 216.732117,439.595032 
	C215.475906,442.390045 214.219696,445.185059 212.445251,448.438477 
	C207.761673,459.638947 202.677139,470.690796 198.462494,482.065033 
	C177.945480,537.435181 167.280640,594.331360 173.994537,653.535522 
	C180.229172,708.513428 201.521805,756.842285 240.002289,797.027588 
	C277.617584,836.309448 323.885712,860.952271 375.632050,876.093445 
	C378.982635,877.073914 382.362457,877.954346 385.728699,878.881287 
	C385.917633,878.434937 386.106567,877.988647 386.295502,877.542297 
	C385.026489,876.804199 383.817932,875.926086 382.479706,875.348267 
	C336.332733,855.424194 295.283630,828.208435 261.212372,790.920654 
	C219.869827,745.675171 197.851822,692.433105 196.062637,631.220276 
	C194.544510,579.281311 207.779984,530.323669 228.611221,483.214905 
	C233.986847,471.058228 240.384033,459.353271 246.290451,447.379181 
	C246.290451,447.379181 246.251389,447.326843 246.791931,447.055450 
	C246.928955,446.681671 247.065979,446.307861 247.728882,445.573517 
	C248.510239,444.057343 249.291580,442.541168 250.601303,440.611115 
	C252.167709,437.853455 253.734131,435.095795 255.275024,432.305084 
	C255.275024,432.305084 255.262817,432.265808 255.787552,431.948608 
	C256.009064,431.387299 256.230591,430.826019 256.304962,430.190582 
	C256.304962,430.190582 256.311340,430.355225 256.820068,430.115814 
	C256.943817,429.768982 257.067566,429.422150 257.094818,429.075043 
M699.523254,994.004028 
	C702.464417,994.004028 705.405579,994.004028 708.792725,994.004028 
	C708.792725,987.900696 708.792725,982.305847 708.792725,976.235596 
	C716.014160,976.235596 722.778381,976.235596 729.671631,976.235596 
	C729.671631,973.163879 729.671631,970.583191 729.671631,967.453613 
	C722.652405,967.453613 715.901062,967.453613 709.082703,967.453613 
	C709.082703,963.674500 709.082703,960.458557 709.082703,956.832153 
	C717.015320,956.832153 724.602844,956.832153 732.438477,956.832153 
	C732.438477,953.838074 732.438477,951.265930 732.438477,948.154663 
	C721.085449,948.154663 709.971802,948.154663 698.007812,948.441284 
	C697.688416,949.158569 697.093933,949.874512 697.090271,950.593384 
	C697.022583,963.971313 696.987061,977.349792 697.085876,990.727112 
	C697.093689,991.788086 698.135010,992.841492 699.523254,994.004028 
M269.407867,993.979614 
	C272.206085,993.979614 275.004272,993.979614 278.136871,993.979614 
	C278.136871,989.150635 278.136871,984.700684 278.136871,979.493469 
	C282.924072,979.493469 287.451691,980.008301 291.818695,979.389465 
	C301.860138,977.966736 306.932281,971.402466 306.080292,961.794983 
	C305.353455,953.598694 298.804169,948.272034 289.266541,948.187622 
	C282.446686,948.127197 275.626190,948.139282 267.967926,948.437866 
	C267.654785,949.166992 267.071472,949.895020 267.068573,950.625427 
	C267.014618,964.115173 266.999207,977.605530 267.096771,991.094788 
	C267.103577,992.039612 268.055054,992.977539 269.407867,993.979614 
M1007.444580,993.426453 
	C1007.605957,992.966248 1007.907104,992.506470 1007.908508,992.045715 
	C1007.949524,978.508789 1007.995300,964.971680 1007.912476,951.435242 
	C1007.905640,950.319397 1006.993103,949.209045 1005.659302,948.201233 
	C1002.882751,948.201233 1000.106262,948.201233 996.694336,948.201233 
	C996.694336,957.786072 996.694336,966.739014 996.694336,976.877380 
	C990.000977,968.136841 984.115051,960.488892 978.272339,952.808044 
	C974.186035,947.436035 972.766785,946.978394 965.680237,949.005981 
	C965.680237,963.919312 965.680237,978.832581 965.680237,993.667175 
	C968.954041,993.667175 971.862427,993.667175 975.378296,993.667175 
	C975.378296,984.172241 975.378296,975.028992 975.378296,964.548645 
	C981.815491,972.931091 987.762878,979.883972 992.767456,987.459717 
	C996.345886,992.876709 1000.517639,995.199524 1007.444580,993.426453 
M470.502228,865.030518 
	C470.663788,864.980835 470.825348,864.931152 471.741577,864.938416 
	C473.185364,864.677673 474.629150,864.416931 476.900665,864.174194 
	C489.137482,862.267944 500.279266,857.658447 510.275543,850.383179 
	C516.682129,845.720398 520.287598,839.249146 521.080017,831.417175 
	C522.807129,814.347534 530.900574,801.214478 546.158569,793.551758 
	C579.485596,776.814636 613.105530,760.660095 646.652954,744.364624 
	C649.186523,743.134033 652.670898,740.950378 654.557861,744.737122 
	C656.387451,748.408875 652.600464,749.924316 650.213318,751.478271 
	C623.685913,768.747070 597.114990,785.949036 570.547485,803.156128 
	C565.977173,806.116150 564.808289,809.765259 567.302307,813.541809 
	C569.636841,817.076904 573.228638,817.468384 577.781677,814.814697 
	C594.761841,804.918213 611.734070,795.007568 628.762390,785.194336 
	C640.020386,778.706360 651.315491,772.276550 662.742065,766.094543 
	C664.236694,765.286011 666.614624,766.110107 668.583374,766.177979 
	C668.089844,768.233398 667.717712,770.330444 667.033752,772.320435 
	C666.808838,772.974915 665.787903,773.367554 665.112000,773.853516 
	C639.280701,792.427246 613.458130,811.013184 587.604065,829.555115 
	C582.928772,832.908203 581.519165,836.804321 583.930908,840.432556 
	C586.331055,844.043335 590.482483,844.227295 595.374878,841.034485 
	C612.254333,830.018799 628.902039,818.619690 646.120117,808.160156 
	C659.465881,800.052979 671.257019,789.279968 687.075928,785.244690 
	C705.110901,780.643982 722.857178,774.920837 740.791321,769.908691 
	C744.737732,768.805847 748.946655,768.642334 752.998535,768.005554 
	C752.998535,768.005554 752.957031,767.970398 752.596619,768.591553 
	C746.852905,770.811218 741.041748,772.871887 735.376404,775.276184 
	C697.164551,791.492615 663.610901,815.171753 630.937561,840.321106 
	C617.104187,850.968811 603.252747,861.707825 588.588013,871.126099 
	C575.817200,879.328064 561.637512,879.988037 547.527771,873.323669 
	C541.887878,870.659729 535.746521,869.710815 530.052368,872.201782 
	C519.958984,876.617371 510.204376,881.807556 499.271576,887.183289 
	C504.931000,889.571655 509.335876,891.492188 513.786865,893.299133 
	C545.470947,906.161987 578.111328,910.996338 612.110657,905.415100 
	C649.275146,899.314209 681.735352,882.766052 710.665405,859.541016 
	C733.105530,841.526062 754.154541,821.776794 775.794250,802.766907 
	C796.822876,784.293945 819.505249,768.399170 845.565979,757.724915 
	C847.970215,756.740112 850.327637,755.640930 853.309143,754.330017 
	C852.109375,753.519348 851.495361,753.029785 850.817139,752.656982 
	C822.027222,736.832581 792.777039,722.010803 761.273987,712.207703 
	C716.545410,698.289001 671.249268,694.442261 625.254333,705.116638 
	C587.392761,713.903503 553.041626,729.496338 525.600220,757.932007 
	C509.441956,774.675720 498.023529,794.052307 496.425171,817.732178 
	C495.594971,830.031250 490.783051,838.302490 478.244843,842.234253 
	C475.146667,843.122864 472.048492,844.011475 468.124390,844.976257 
	C466.742126,845.001038 465.359894,845.025818 463.353241,844.614075 
	C460.576385,844.758362 457.799530,844.902588 454.183838,845.007019 
	C452.787323,845.050171 451.390778,845.093323 449.228668,845.009644 
	C444.106750,844.118347 438.993561,843.172913 433.861481,842.344299 
	C392.077454,835.597778 353.275238,820.863098 317.162903,798.884766 
	C315.766632,798.034912 314.190491,797.480713 312.698151,796.788757 
	C313.731628,798.681458 315.106171,799.860474 316.487366,801.031677 
	C349.155060,828.734070 385.383270,849.965759 427.042908,860.986694 
	C441.054047,864.693298 455.374420,867.004517 470.502228,865.030518 
M855.694153,718.408386 
	C858.798401,718.584473 861.902588,718.760620 865.734009,719.111511 
	C866.479736,719.103271 867.225464,719.094971 868.707520,719.436829 
	C884.842468,719.580750 900.977295,719.816406 917.112488,719.849304 
	C949.729065,719.915894 982.345947,719.886719 1014.962646,719.841064 
	C1017.064453,719.838135 1019.973511,720.879639 1020.661743,716.554321 
	C1026.980225,699.475586 1033.298584,682.396912 1039.985229,664.322998 
	C1035.847656,664.322998 1032.738403,664.322510 1029.629150,664.323059 
	C985.836182,664.331055 942.042725,664.453003 898.250854,664.239136 
	C890.658264,664.202087 882.901794,663.482788 875.522583,661.775208 
	C863.681091,659.035217 858.400024,652.590454 857.284302,640.960510 
	C856.891541,636.866028 856.826477,632.530579 857.725342,628.557068 
	C862.162964,608.939880 866.634277,589.317200 871.781494,569.878540 
	C874.835388,558.345459 878.404053,546.824341 883.095825,535.878479 
	C890.055115,519.642700 903.078430,510.555603 920.648193,508.163116 
	C924.105042,507.692413 927.568481,507.269897 931.955566,506.941345 
	C970.653503,506.902618 1009.351379,506.878754 1048.049316,506.813293 
	C1056.346436,506.799286 1064.643188,506.634735 1073.635254,506.722687 
	C1074.516357,505.449738 1075.692383,504.290009 1076.231689,502.885803 
	C1080.407593,492.012756 1084.475708,481.098175 1088.545654,470.184692 
	C1090.850464,464.004791 1093.095581,457.802704 1095.619507,450.924164 
	C1078.770264,450.924164 1062.804077,450.832916 1046.839233,450.941650 
	C1003.222656,451.238647 959.540710,450.248810 916.008423,452.341980 
	C869.659973,454.570587 837.175354,478.571472 821.167053,522.640930 
	C815.107361,539.322632 810.631042,556.640930 806.373718,573.901062 
	C800.605957,597.284790 794.820312,620.735657 790.806580,644.456238 
	C787.982849,661.143921 790.751892,677.788208 801.391846,691.965210 
	C814.752686,709.767761 834.140991,715.471069 855.694153,718.408386 
M232.221375,665.530334 
	C234.638733,683.169495 240.003525,699.850098 248.229752,715.650818 
	C249.785004,718.638184 251.498993,719.945251 255.078003,719.931824 
	C296.404205,719.776489 337.731689,719.933350 379.057404,719.721863 
	C389.031006,719.670898 399.069000,719.118286 408.956421,717.851868 
	C434.990936,714.517334 458.151367,704.798340 474.140839,683.099548 
	C490.893402,660.365173 499.256226,634.294067 499.338379,606.037354 
	C499.396210,586.146118 489.398621,571.770447 470.781128,565.042297 
	C460.286163,561.249634 448.853058,558.726135 437.731659,558.256470 
	C410.448425,557.104248 383.097626,557.647034 355.781097,557.132446 
	C346.997162,556.966980 338.131866,556.203735 329.495056,554.650391 
	C322.159088,553.331055 318.312439,547.916138 319.030548,540.956238 
	C321.003845,521.831787 329.435181,512.116089 345.379211,509.042450 
	C353.175171,507.539551 361.257599,506.976837 369.214386,506.943420 
	C416.872772,506.743164 464.532471,506.774536 512.191284,506.893890 
	C515.956360,506.903351 517.716431,505.802124 518.953796,502.216614 
	C522.158875,492.929535 525.840027,483.807281 529.297424,474.606598 
	C532.199036,466.884979 535.053284,459.145538 538.117310,450.905975 
	C535.753967,450.905975 534.099915,450.905853 532.445862,450.905945 
	C478.287720,450.909546 424.129486,450.863434 369.971527,450.966797 
	C361.152985,450.983612 352.291931,451.228943 343.526123,452.116028 
	C317.984894,454.700775 294.859619,463.081055 278.640045,484.079163 
	C260.014343,508.192322 252.366119,536.268005 253.436493,566.427917 
	C254.039322,583.413757 263.215149,595.743286 278.608185,603.252319 
	C290.837280,609.217957 303.979736,611.487793 317.338013,611.752319 
	C344.323822,612.286804 371.325073,612.009766 398.313690,612.451477 
	C406.253296,612.581360 414.296814,613.396057 422.065186,614.999390 
	C430.026978,616.642700 433.727478,621.908264 432.842773,629.444458 
	C430.679382,647.872437 422.415375,658.790222 405.793701,662.133911 
	C399.651306,663.369507 393.272766,663.431335 386.409851,663.439331 
	C385.933380,663.309021 385.456970,663.064819 384.980438,663.064514 
	C335.230072,663.031799 285.479675,663.004822 235.729431,663.077759 
	C234.529221,663.079529 233.330643,664.207031 232.221375,665.530334 
M622.361389,518.867493 
	C628.213623,512.978333 635.374268,509.513245 643.482971,508.377594 
	C649.896362,507.479462 656.412903,506.925812 662.885681,506.906281 
	C705.548157,506.777374 748.211365,506.797089 790.873901,506.904266 
	C794.185547,506.912628 795.751892,506.047363 797.026245,502.799927 
	C802.002502,490.118805 807.435669,477.617676 812.629944,465.021149 
	C814.560852,460.338593 816.302002,455.577789 818.464111,449.987976 
	C815.449646,449.987976 813.655457,449.987701 811.861206,449.988007 
	C765.698730,449.995514 719.536133,449.933289 673.373962,450.055481 
	C660.387756,450.089844 647.342651,449.982819 634.429443,451.126007 
	C600.889832,454.095276 574.754150,469.170898 559.782898,500.267212 
	C554.757874,510.704559 550.637207,521.757935 547.588501,532.934875 
	C534.306396,581.629028 521.572144,630.472595 508.636963,679.261353 
	C505.109772,692.565247 501.575562,705.867249 497.890656,719.749939 
	C511.872070,719.749939 525.184753,719.483337 538.480103,719.849426 
	C546.512878,720.070679 554.109985,719.440308 560.547119,714.182556 
	C562.319519,712.735046 564.312195,710.828430 564.892334,708.763977 
	C570.070007,690.339478 574.967834,671.836304 579.919495,653.348572 
	C583.658875,639.387085 587.356689,625.414429 591.116577,611.283020 
	C593.034973,611.283020 594.691772,611.283142 596.348572,611.283020 
	C647.343994,611.277893 698.339417,611.279236 749.334839,611.256531 
	C753.825378,611.254517 759.497803,612.726257 762.483948,610.563049 
	C765.665588,608.258179 766.306702,602.445801 768.055542,598.164185 
	C768.559082,596.931274 769.085144,595.706665 769.554504,594.460754 
	C774.291443,581.885681 779.018616,569.306946 784.019165,556.009583 
	C724.263123,556.009583 665.220337,556.009583 605.660217,556.009583 
	C609.301270,542.510071 612.351135,529.537109 622.361389,518.867493 
M697.622070,242.754227 
	C706.643188,242.441010 715.463928,243.235550 723.942078,247.065491 
	C718.645691,264.030487 710.792175,279.312805 701.113525,293.492065 
	C691.364502,307.774536 681.289307,321.979279 669.945740,334.987335 
	C658.709778,347.872040 646.406616,360.051392 633.292603,371.009521 
	C620.191711,381.956635 606.106812,392.043427 591.347046,400.598877 
	C576.460510,409.227783 560.604675,416.570068 544.453247,422.521362 
	C528.682739,428.332306 512.002197,431.673553 496.681000,435.838074 
	C533.537537,440.018188 570.363953,435.450836 606.177917,422.323425 
	C639.906555,409.960266 670.885681,392.458466 699.101135,370.483032 
	C709.209717,362.610077 718.516541,359.994843 730.903076,362.568420 
	C750.161804,366.569885 769.600037,369.693817 787.299438,378.797668 
	C802.936951,386.840973 804.869080,394.458588 795.250000,409.118866 
	C790.595825,416.212341 785.323547,422.898010 780.554993,429.920349 
	C779.455872,431.538971 779.275146,433.781219 778.671814,435.736481 
	C780.714172,435.961426 782.883850,436.749695 784.778687,436.321594 
	C798.922180,433.126007 810.896057,425.749207 821.662964,416.316528 
	C824.648499,413.700928 827.393494,410.701050 829.772278,407.520966 
	C842.423645,390.608582 840.644409,374.163025 824.553894,360.369873 
	C805.404907,343.954956 782.374268,335.248138 758.753174,327.800781 
	C756.129272,326.973511 753.481934,326.220673 750.571533,325.351501 
	C762.989380,310.739075 774.925049,296.694061 787.000793,282.484253 
	C790.153381,284.734314 792.991272,287.035400 796.085999,288.913239 
	C803.333801,293.311096 810.410889,298.148438 818.083313,301.657410 
	C837.552368,310.561462 856.027100,308.267639 873.016541,295.077759 
	C888.214539,283.278656 899.376343,268.318604 907.114624,250.812881 
	C908.215942,248.321487 907.861450,245.186554 908.180847,242.349487 
	C905.331726,243.150803 902.018921,243.283768 899.720154,244.878433 
	C892.749329,249.714249 886.213257,255.172089 879.420776,260.271637 
	C876.363098,262.567200 873.184814,264.729553 869.914124,266.709259 
	C851.108215,278.092407 836.251099,276.527893 819.945007,261.597137 
	C808.773560,251.367813 798.283142,240.223007 786.226501,231.167374 
	C759.999512,211.468536 730.041321,204.170868 697.565308,209.105148 
	C667.529297,213.668701 644.889038,230.501404 627.202271,254.355759 
	C622.103394,261.232697 618.404785,269.178864 614.407654,276.814636 
	C613.651489,278.259308 613.821533,281.321014 614.832764,282.238678 
	C615.834412,283.147736 618.645264,282.781525 620.292297,282.091156 
	C622.701538,281.081360 624.875671,279.408112 626.981995,277.797882 
	C633.067993,273.145203 638.957214,268.229187 645.127258,263.693481 
	C660.520203,252.377991 677.118103,243.914459 697.622070,242.754227 
M847.501892,198.807587 
	C847.951355,196.194031 848.710388,193.591019 848.799866,190.965195 
	C849.362854,174.444092 836.929565,160.386063 820.348633,158.616440 
	C803.571350,156.825851 788.851074,168.105942 785.879883,185.029709 
	C783.062134,201.079285 793.345886,216.816208 809.255859,220.801392 
	C825.508545,224.872421 841.722778,215.795853 847.501892,198.807587 
M546.233459,1021.507751 
	C533.524719,1026.052612 525.287598,1037.927246 526.413391,1050.080322 
	C527.720398,1064.189941 536.646912,1073.775146 550.763611,1075.677490 
	C561.870789,1077.174194 571.818115,1074.403809 578.817810,1065.200928 
	C585.176331,1056.841309 586.662903,1047.358521 582.756226,1037.361938 
	C577.588074,1024.137207 563.329285,1017.731812 546.233459,1021.507751 
M825.640991,1021.057922 
	C822.936768,1020.701599 821.736694,1021.650146 821.834473,1024.605225 
	C822.024963,1030.364258 821.890259,1036.133911 821.890259,1041.849976 
	C813.571594,1041.849976 806.016174,1041.849976 798.020020,1041.849976 
	C798.020020,1034.822876 798.020020,1028.235718 798.020020,1021.347656 
	C794.005615,1021.347656 790.444214,1021.347656 786.574341,1021.347656 
	C786.574341,1039.292847 786.574341,1057.017944 786.574341,1074.830200 
	C790.496948,1074.830200 794.069824,1074.830200 798.213440,1074.830200 
	C798.213440,1067.630127 798.213440,1060.721313 798.213440,1053.765137 
	C806.343445,1053.765137 813.886902,1053.765137 821.929077,1053.765137 
	C821.929077,1061.051025 821.929077,1067.806030 821.929077,1074.761475 
	C826.135742,1074.761475 829.832703,1074.761475 833.506226,1074.761475 
	C833.506226,1056.708374 833.506226,1039.018311 833.506226,1021.056946 
	C830.885559,1021.056946 828.729492,1021.056946 825.640991,1021.057922 
M625.713074,1074.909424 
	C628.072693,1062.615356 637.024231,1062.552246 646.602661,1063.647949 
	C646.766663,1063.666748 646.940552,1063.674316 647.100586,1063.641846 
	C653.023804,1062.438232 656.336426,1064.866455 657.832520,1070.702148 
	C658.261841,1072.376587 660.100037,1074.542480 661.651978,1074.893677 
	C664.608765,1075.562866 667.824463,1075.087891 671.231812,1075.087891 
	C670.989624,1073.715576 670.996399,1072.858032 670.687500,1072.135498 
	C663.761902,1055.934692 656.758362,1039.767090 649.877075,1023.547546 
	C648.082153,1019.316956 644.549072,1021.306274 641.705017,1020.977600 
	C639.258911,1020.694946 636.908875,1020.557434 635.656799,1023.786682 
	C633.255676,1029.979614 630.366638,1035.981934 627.743164,1042.090454 
	C623.106750,1052.885864 618.517761,1063.701660 613.653259,1075.108398 
	C617.923462,1075.108398 621.401672,1075.108398 625.713074,1074.909424 
M719.490601,1021.822754 
	C707.423523,1026.531494 700.705627,1036.495605 701.023132,1049.214111 
	C701.318359,1061.038330 708.384949,1070.763794 719.448547,1074.572144 
	C730.813416,1078.484009 744.441345,1074.999268 751.374695,1066.274170 
	C748.950073,1063.893433 746.508728,1061.496338 744.092896,1059.124268 
	C732.682312,1066.744629 724.171814,1067.112549 718.019287,1060.343262 
	C712.411926,1054.173706 711.682068,1043.645142 717.144226,1037.387817 
	C719.507874,1034.680176 723.058105,1032.415771 726.500732,1031.369019 
	C733.111267,1029.359131 738.665222,1032.879761 743.963684,1036.918213 
	C746.490784,1034.160278 748.807739,1031.631592 751.375488,1028.829102 
	C742.184631,1019.838623 731.745911,1018.470032 719.490601,1021.822754 
M467.553650,1064.436035 
	C457.639832,1060.369507 453.425049,1049.951050 458.544434,1040.171875 
	C460.306183,1036.806396 463.856720,1033.633911 467.349640,1032.072388 
	C474.632721,1028.816650 481.188416,1032.094727 487.139771,1036.934570 
	C489.735321,1034.091309 492.052399,1031.552979 494.333649,1029.053955 
	C484.088928,1017.114014 463.648163,1017.000549 452.038666,1028.505493 
	C441.126740,1039.319214 441.630981,1059.379883 453.064911,1069.332275 
	C464.646484,1079.413208 485.698364,1077.936768 494.134918,1066.784546 
	C491.785492,1064.013916 489.479462,1061.294434 487.241058,1058.654785 
	C479.075378,1065.108032 476.492401,1065.891602 467.553650,1064.436035 
M434.846619,960.904358 
	C433.794983,953.921753 429.551788,949.411255 422.811462,948.836365 
	C414.137970,948.096558 405.353668,948.656311 396.506653,948.656311 
	C396.506653,963.780640 396.506653,978.665527 396.506653,993.676575 
	C399.840576,993.676575 402.862946,993.676575 406.292908,993.676575 
	C406.292908,988.546204 406.292908,983.782471 406.292908,979.206604 
	C412.046600,977.617920 416.026611,979.064331 418.305511,984.377869 
	C418.821167,985.580139 419.723694,986.618469 420.462646,987.722595 
	C425.231049,994.847473 426.486267,995.325745 435.615936,993.353455 
	C432.041840,987.985107 428.519897,982.695129 424.905212,977.265747 
	C431.983856,974.154175 435.236298,969.059021 434.846619,960.904358 
M330.984863,986.482483 
	C332.196075,987.617981 333.317657,988.871521 334.632751,989.870178 
	C345.059021,997.788086 360.821747,995.999939 368.829712,986.037354 
	C376.872009,976.032043 375.422760,960.903076 365.647797,952.818970 
	C356.654297,945.381287 341.988342,945.583008 333.353821,953.263245 
	C324.220825,961.386841 323.065338,974.771301 330.984863,986.482483 
M1041.593384,962.345520 
	C1044.233521,960.453186 1046.812256,957.093628 1049.526978,956.979858 
	C1054.859985,956.756287 1060.268555,958.337891 1066.601074,959.320862 
	C1067.445801,958.329102 1069.236206,956.227112 1071.068726,954.075562 
	C1066.355591,949.342712 1060.747681,947.906250 1054.873413,947.430237 
	C1042.466675,946.424683 1031.859619,954.245178 1029.425903,965.973328 
	C1026.853516,978.369934 1032.629028,989.556885 1043.827271,993.361389 
	C1052.946777,996.459656 1061.583252,994.818176 1069.601562,989.767395 
	C1070.708130,989.070312 1071.953125,987.566589 1072.001709,986.389587 
	C1072.245605,980.470032 1072.113647,974.534973 1072.113647,968.388428 
	C1065.374512,968.388428 1059.285767,968.388428 1052.978027,968.388428 
	C1052.978027,971.032227 1052.978027,973.438232 1052.978027,976.099304 
	C1056.331909,976.282227 1059.428101,976.451050 1063.419434,976.668701 
	C1062.741455,979.389221 1062.918579,982.994080 1061.424316,983.929565 
	C1054.871094,988.032471 1042.718140,987.110901 1040.133545,976.961609 
	C1039.040649,972.670105 1040.736450,967.668518 1041.593384,962.345520 
M601.538879,978.314575 
	C600.318298,983.876038 601.489380,988.777161 606.469299,991.863159 
	C614.873901,997.071411 622.948975,995.280273 630.409363,989.720459 
	C636.621399,995.111450 636.621399,995.111450 643.091675,990.731812 
	C641.019958,988.367676 638.964355,986.021790 636.953125,983.726624 
	C638.818542,980.118469 640.605713,976.661804 642.564148,972.873840 
	C639.695251,971.753418 637.445984,970.875000 635.100525,969.959045 
	C633.692566,972.658997 632.496216,974.953125 631.004639,977.813171 
	C628.644287,975.345215 626.652771,973.262939 624.636902,971.155212 
	C633.945312,963.520447 635.928040,958.199646 631.826660,952.479553 
	C628.047729,947.209167 619.095398,945.789978 612.774902,949.459412 
	C606.507874,953.097778 605.623962,959.097839 609.589722,967.796021 
	C606.811340,971.261230 604.289795,974.406128 601.538879,978.314575 
M852.282593,990.468750 
	C852.282593,988.884399 852.282593,987.300049 852.282593,985.302856 
	C843.840698,985.302856 836.113403,985.302856 828.350098,985.302856 
	C828.350098,981.784912 828.350098,978.693237 828.350098,975.033447 
	C835.303894,975.033447 842.021667,975.033447 848.757202,975.033447 
	C848.757202,972.002930 848.757202,969.549744 848.757202,966.584473 
	C841.825195,966.584473 835.094482,966.584473 828.275635,966.584473 
	C828.275635,963.141724 828.275635,960.217346 828.275635,956.739624 
	C836.201355,956.739624 843.924622,956.739624 851.638184,956.739624 
	C851.638184,953.622437 851.638184,951.069031 851.638184,948.513794 
	C840.397705,948.513794 829.503662,948.513794 818.388672,948.513794 
	C818.388672,963.745544 818.388672,978.637146 818.388672,994.036255 
	C829.173279,994.036255 839.766785,994.083923 850.357056,993.919922 
	C851.003601,993.909851 851.624084,992.222778 852.282593,990.468750 
M238.532120,959.843567 
	C240.597748,957.972778 242.663361,956.101990 245.180542,953.822266 
	C236.288101,947.280273 227.531357,945.763184 218.087601,949.065735 
	C212.547272,951.003235 209.441879,955.064209 209.331528,961.123657 
	C209.224197,967.016357 211.725616,970.828247 217.915909,973.141418 
	C221.627914,974.528503 225.623627,975.136658 229.433136,976.288940 
	C232.377258,977.179443 236.323410,977.708435 235.629349,982.005066 
	C234.951294,986.202881 231.019699,986.840210 227.749664,986.248474 
	C222.805252,985.353516 218.023376,983.560669 212.454773,981.940552 
	C211.329514,983.290649 209.569641,985.402222 207.578690,987.791077 
	C216.455750,994.509705 225.862747,996.455811 236.087723,993.550110 
	C242.266724,991.794189 245.808578,986.706543 245.910294,980.574158 
	C246.006424,974.778076 243.068375,970.773865 236.550339,968.560913 
	C232.470581,967.175842 228.079056,966.649963 224.096237,965.063660 
	C222.139069,964.284180 220.792923,961.970520 219.170227,960.351135 
	C221.135834,958.910217 223.197632,956.156555 225.047745,956.292114 
	C229.377808,956.609375 233.606354,958.311890 238.532120,959.843567 
M521.468567,993.085388 
	C528.316223,995.397278 535.196899,995.793152 541.921021,992.836060 
	C547.345398,990.450500 549.931030,986.044189 549.822693,980.117065 
	C549.717773,974.373291 546.501099,970.782654 541.384094,968.973694 
	C537.166687,967.482666 532.616516,966.879028 528.494202,965.195496 
	C526.424866,964.350342 523.656250,962.066223 523.533875,960.273804 
	C523.293396,956.752136 526.822144,955.755615 529.671387,956.177490 
	C534.328003,956.867004 538.875977,958.290649 543.986206,959.529785 
	C545.123047,957.977051 546.671753,955.861694 548.196167,953.779541 
	C540.895081,946.758301 526.483093,945.124146 518.889648,950.844849 
	C516.464600,952.671875 514.437256,955.921204 513.681274,958.889771 
	C511.902191,965.875854 515.480896,971.228699 522.973145,973.661499 
	C527.230652,975.043884 531.758301,975.640503 535.933777,977.205933 
	C537.559937,977.815613 539.839294,980.464111 539.540588,981.565308 
	C539.059021,983.340454 536.696777,985.832642 535.113403,985.844055 
	C530.924438,985.874023 526.684631,984.922607 522.552673,983.978149 
	C520.705750,983.555969 519.068970,982.214600 516.989380,981.104980 
	C515.189514,983.294189 513.474121,985.380615 511.322632,987.997498 
	C514.881714,989.848572 517.795654,991.364136 521.468567,993.085388 
M763.895630,959.527344 
	C763.895630,955.908630 763.895630,952.289978 763.895630,948.557617 
	C760.320740,948.557617 757.274109,948.557617 753.950439,948.557617 
	C753.950439,957.911804 753.932068,966.891785 753.970581,975.871643 
	C753.976257,977.195312 754.179016,978.530762 754.413818,979.838745 
	C756.167236,989.605835 763.230286,994.905029 774.310425,994.802795 
	C785.360596,994.700806 792.987671,989.235840 793.723938,979.395447 
	C794.487976,969.182617 793.894104,958.868225 793.894104,948.440308 
	C790.687500,948.440308 787.776550,948.440308 784.344788,948.440308 
	C784.344788,957.676331 784.509399,966.632629 784.291260,975.579651 
	C784.125061,982.397461 780.315857,986.049011 774.122314,985.984436 
	C767.846680,985.919006 764.184143,982.255493 763.958008,975.508301 
	C763.790710,970.516174 763.907959,965.514404 763.895630,959.527344 
M256.500000,1052.133911 
	C302.612183,1052.131104 348.724365,1052.124146 394.836548,1052.134155 
	C398.100250,1052.134888 401.634552,1052.518433 399.483490,1047.203857 
	C335.723236,1047.203857 272.049072,1047.203857 208.434540,1047.203857 
	C206.983444,1051.167480 208.517563,1052.164795 212.051682,1052.140259 
	C226.533768,1052.039795 241.017120,1052.118774 256.500000,1052.133911 
M935.500000,1052.142212 
	C979.472351,1052.123657 1023.444641,1052.088135 1067.416992,1052.118652 
	C1070.952393,1052.121094 1073.447021,1051.702271 1071.564087,1047.110474 
	C1070.657593,1047.043579 1069.844116,1046.931030 1069.030640,1046.930908 
	C1007.402893,1046.914307 945.775146,1046.904541 884.147400,1046.906250 
	C882.206421,1046.906372 879.491028,1046.521606 880.288574,1049.630371 
	C880.576660,1050.753296 883.046387,1052.010620 884.532776,1052.025879 
	C901.187134,1052.198853 917.843872,1052.140869 935.500000,1052.142212 
M478.883087,968.518799 
	C478.883087,964.768127 478.883087,961.017456 478.883087,956.863159 
	C484.041779,956.863159 488.458252,956.863159 492.885681,956.863159 
	C492.885681,953.727722 492.885681,951.025879 492.885681,948.506958 
	C479.943207,948.506958 467.390289,948.506958 454.806213,948.506958 
	C454.806213,951.477844 454.806213,954.043396 454.806213,957.010620 
	C459.567444,957.010620 463.999969,957.010620 468.954224,957.010620 
	C468.954224,969.450684 468.954224,981.495422 468.954224,993.732544 
	C472.521912,993.732544 475.545502,993.732544 478.892639,993.732544 
	C478.892639,985.424744 478.892639,977.468384 478.883087,968.518799 
M874.822021,985.322998 
	C874.822021,988.124695 874.822021,990.926453 874.822021,993.784607 
	C885.935974,993.784607 896.673889,993.784607 907.612061,993.784607 
	C907.612061,990.902283 907.612061,988.347107 907.612061,985.452087 
	C900.057800,985.452087 892.790710,985.452087 884.896301,985.452087 
	C884.896301,972.912231 884.896301,960.698792 884.896301,948.590881 
	C881.192505,948.590881 878.140503,948.590881 874.822815,948.590881 
	C874.822815,960.815125 874.822815,972.636169 874.822021,985.322998 
M930.377869,961.515015 
	C930.377869,972.267456 930.377869,983.019897 930.377869,993.842896 
	C934.056030,993.842896 937.012939,993.842896 940.089355,993.842896 
	C940.089355,978.586243 940.089355,963.519836 940.089355,948.420593 
	C936.813232,948.420593 933.873840,948.420593 930.380615,948.420593 
	C930.380615,952.612122 930.380615,956.567322 930.377869,961.515015 
M754.472961,183.474976 
	C754.472961,183.474976 754.551453,183.494354 754.472961,183.474976 
z"/>
<path fill="#000000" opacity="1.000000" stroke="none" 
	d="
M188.531342,0.999998 
	C188.037750,1.657068 187.114517,2.817560 186.107391,2.895603 
	C171.300293,4.043027 157.073822,7.814929 143.082932,12.493103 
	C121.821259,19.602423 102.225342,30.071993 84.362823,43.532288 
	C75.652229,50.096153 67.089363,57.135960 59.682983,65.098274 
	C37.343494,89.114578 19.914192,116.289330 10.902245,148.141327 
	C7.543110,160.013931 5.587101,172.282684 2.943439,184.360306 
	C2.751522,185.237091 2.168195,186.028168 1.383423,186.929535 
	C1.000000,125.072586 1.000000,63.145164 1.000000,1.000000 
	C63.354057,1.000000 125.708374,1.000000 188.531342,0.999998 
z"/>
<path fill="#000000" opacity="1.000000" stroke="none" 
	d="
M0.999980,1068.468628 
	C1.654777,1068.966431 2.812315,1069.894043 2.890158,1070.904785 
	C4.438377,1091.007568 10.311807,1109.938110 18.102192,1128.387939 
	C26.313740,1147.834961 37.746197,1165.306396 51.113388,1181.490356 
	C60.860573,1193.291382 72.359947,1203.285645 84.622116,1212.520752 
	C101.628647,1225.329224 119.820496,1235.912842 140.064178,1242.385864 
	C153.582169,1246.708374 167.589752,1249.497559 181.367508,1253.014893 
	C182.245560,1253.239136 183.030731,1253.827148 183.929565,1254.623047 
	C123.072189,1255.000000 62.144375,1255.000000 1.000000,1255.000000 
	C1.000000,1192.979248 1.000000,1130.958252 0.999980,1068.468628 
z"/>
<path fill="#000000" opacity="1.000000" stroke="none" 
	d="
M1255.000000,181.531342 
	C1254.013306,179.940552 1252.450073,177.966141 1252.131592,175.808090 
	C1249.744263,159.625992 1245.198242,144.126892 1238.633545,129.139923 
	C1231.273560,112.337219 1222.564819,96.254837 1210.861938,82.183571 
	C1201.485107,70.909073 1191.540039,59.822796 1180.393921,50.366028 
	C1159.900269,32.978718 1136.765015,19.458420 1110.879395,11.719225 
	C1097.475098,7.711626 1083.440430,5.815485 1069.699829,2.921483 
	C1068.813721,2.734846 1068.007446,2.169686 1067.082031,1.390301 
	C1129.592285,1.000000 1192.184570,1.000000 1255.000000,1.000000 
	C1255.000000,61.020710 1255.000000,121.041695 1255.000000,181.531342 
z"/>
<path fill="#000000" opacity="1.000000" stroke="none" 
	d="
M1073.468628,1255.000000 
	C1075.232666,1254.035645 1077.379395,1252.621826 1079.711182,1252.175903 
	C1107.513062,1246.859619 1133.864136,1237.906250 1157.716797,1222.240723 
	C1171.068359,1213.471802 1183.993042,1204.183228 1194.933960,1192.492920 
	C1216.931396,1168.988892 1234.630005,1142.731812 1244.143677,1111.672119 
	C1247.471313,1100.808228 1249.460327,1089.536743 1252.155762,1078.474487 
	C1252.605225,1076.629639 1253.542114,1074.903687 1254.626953,1073.061279 
	C1255.000000,1133.593750 1255.000000,1194.187378 1255.000000,1255.000000 
	C1194.645874,1255.000000 1134.291626,1255.000000 1073.468628,1255.000000 
z"/>
<path fill="#000000" opacity="1.000000" stroke="none" 
	d="
M1255.000000,185.666687 
	C1254.801636,185.349197 1254.603271,184.698380 1254.702393,184.023773 
	C1255.000000,184.444443 1255.000000,184.888901 1255.000000,185.666687 
z"/>
<path fill="#FCFCFC" opacity="1.000000" stroke="none" 
	d="
M387.001923,664.028503 
	C393.272766,663.431335 399.651306,663.369507 405.793701,662.133911 
	C422.415375,658.790222 430.679382,647.872437 432.842773,629.444458 
	C433.727478,621.908264 430.026978,616.642700 422.065186,614.999390 
	C414.296814,613.396057 406.253296,612.581360 398.313690,612.451477 
	C371.325073,612.009766 344.323822,612.286804 317.338013,611.752319 
	C303.979736,611.487793 290.837280,609.217957 278.608185,603.252319 
	C263.215149,595.743286 254.039322,583.413757 253.436493,566.427917 
	C252.366119,536.268005 260.014343,508.192322 278.640045,484.079163 
	C294.859619,463.081055 317.984894,454.700775 343.526123,452.116028 
	C352.291931,451.228943 361.152985,450.983612 369.971527,450.966797 
	C424.129486,450.863434 478.287720,450.909546 532.445862,450.905945 
	C534.099915,450.905853 535.753967,450.905975 538.117310,450.905975 
	C535.053284,459.145538 532.199036,466.884979 529.297424,474.606598 
	C525.840027,483.807281 522.158875,492.929535 518.953796,502.216614 
	C517.716431,505.802124 515.956360,506.903351 512.191284,506.893890 
	C464.532471,506.774536 416.872772,506.743164 369.214386,506.943420 
	C361.257599,506.976837 353.175171,507.539551 345.379211,509.042450 
	C329.435181,512.116089 321.003845,521.831787 319.030548,540.956238 
	C318.312439,547.916138 322.159088,553.331055 329.495056,554.650391 
	C338.131866,556.203735 346.997162,556.966980 355.781097,557.132446 
	C383.097626,557.647034 410.448425,557.104248 437.731659,558.256470 
	C448.853058,558.726135 460.286163,561.249634 470.781128,565.042297 
	C489.398621,571.770447 499.396210,586.146118 499.338379,606.037354 
	C499.256226,634.294067 490.893402,660.365173 474.140839,683.099548 
	C458.151367,704.798340 434.990936,714.517334 408.956421,717.851868 
	C399.069000,719.118286 389.031006,719.670898 379.057404,719.721863 
	C337.731689,719.933350 296.404205,719.776489 255.078003,719.931824 
	C251.498993,719.945251 249.785004,718.638184 248.229752,715.650818 
	C240.003525,699.850098 234.638733,683.169495 232.623734,665.036499 
	C234.850067,664.477173 236.674026,664.354248 238.498001,664.354431 
	C283.191742,664.358765 327.885468,664.387207 372.579193,664.374939 
	C377.386810,664.373657 382.194336,664.149353 387.001923,664.028503 
z"/>
<path fill="#89B02C" opacity="1.000000" stroke="none" 
	d="
M753.034729,768.046265 
	C748.946655,768.642334 744.737732,768.805847 740.791321,769.908691 
	C722.857178,774.920837 705.110901,780.643982 687.075928,785.244690 
	C671.257019,789.279968 659.465881,800.052979 646.120117,808.160156 
	C628.902039,818.619690 612.254333,830.018799 595.374878,841.034485 
	C590.482483,844.227295 586.331055,844.043335 583.930908,840.432556 
	C581.519165,836.804321 582.928772,832.908203 587.604065,829.555115 
	C613.458130,811.013184 639.280701,792.427246 665.112000,773.853516 
	C665.787903,773.367554 666.808838,772.974915 667.033752,772.320435 
	C667.717712,770.330444 668.089844,768.233398 668.583374,766.177979 
	C666.614624,766.110107 664.236694,765.286011 662.742065,766.094543 
	C651.315491,772.276550 640.020386,778.706360 628.762390,785.194336 
	C611.734070,795.007568 594.761841,804.918213 577.781677,814.814697 
	C573.228638,817.468384 569.636841,817.076904 567.302307,813.541809 
	C564.808289,809.765259 565.977173,806.116150 570.547485,803.156128 
	C597.114990,785.949036 623.685913,768.747070 650.213318,751.478271 
	C652.600464,749.924316 656.387451,748.408875 654.557861,744.737122 
	C652.670898,740.950378 649.186523,743.134033 646.652954,744.364624 
	C613.105530,760.660095 579.485596,776.814636 546.158569,793.551758 
	C530.900574,801.214478 522.807129,814.347534 521.080017,831.417175 
	C520.287598,839.249146 516.682129,845.720398 510.275543,850.383179 
	C500.279266,857.658447 489.137482,862.267944 476.292480,863.872803 
	C471.989471,857.940674 467.933014,852.787231 460.107574,856.091919 
	C456.499634,857.615479 453.099518,859.694824 449.758331,861.768982 
	C446.225861,863.961853 442.080566,863.490662 440.179840,860.281311 
	C438.106201,856.780029 438.948242,853.914368 442.386322,851.853333 
	C443.950775,850.915588 445.858063,850.438110 447.203827,849.280090 
	C448.421082,848.232544 449.085846,846.542969 449.994263,845.136536 
	C451.390778,845.093323 452.787323,845.050171 454.886993,845.297180 
	C458.385986,845.408386 461.181793,845.229492 463.977631,845.050598 
	C465.359894,845.025818 466.742126,845.001038 468.783813,845.223877 
	C470.665192,845.827698 471.877808,846.220886 473.110992,846.532898 
	C476.796906,847.465515 479.169189,846.566406 478.995667,842.217224 
	C490.783051,838.302490 495.594971,830.031250 496.425171,817.732178 
	C498.023529,794.052307 509.441956,774.675720 525.600220,757.932007 
	C553.041626,729.496338 587.392761,713.903503 625.254333,705.116638 
	C671.249268,694.442261 716.545410,698.289001 761.273987,712.207703 
	C792.777039,722.010803 822.027222,736.832581 850.817139,752.656982 
	C851.495361,753.029785 852.109375,753.519348 853.309143,754.330017 
	C850.327637,755.640930 847.970215,756.740112 845.565979,757.724915 
	C819.505249,768.399170 796.822876,784.293945 775.794250,802.766907 
	C754.154541,821.776794 733.105530,841.526062 710.665405,859.541016 
	C681.735352,882.766052 649.275146,899.314209 612.110657,905.415100 
	C578.111328,910.996338 545.470947,906.161987 513.786865,893.299133 
	C509.335876,891.492188 504.931000,889.571655 499.271576,887.183289 
	C510.204376,881.807556 519.958984,876.617371 530.052368,872.201782 
	C535.746521,869.710815 541.887878,870.659729 547.527771,873.323669 
	C561.637512,879.988037 575.817200,879.328064 588.588013,871.126099 
	C603.252747,861.707825 617.104187,850.968811 630.937561,840.321106 
	C663.610901,815.171753 697.164551,791.492615 735.376404,775.276184 
	C741.041748,772.871887 746.852905,770.811218 752.927246,768.256409 
	C753.183533,767.962952 753.109131,768.004639 753.034729,768.046265 
z"/>
<path fill="#FCFCFC" opacity="1.000000" stroke="none" 
	d="
M622.110962,519.119385 
	C612.351135,529.537109 609.301270,542.510071 605.660217,556.009583 
	C665.220337,556.009583 724.263123,556.009583 784.019165,556.009583 
	C779.018616,569.306946 774.291443,581.885681 769.554504,594.460754 
	C769.085144,595.706665 768.559082,596.931274 768.055542,598.164185 
	C766.306702,602.445801 765.665588,608.258179 762.483948,610.563049 
	C759.497803,612.726257 753.825378,611.254517 749.334839,611.256531 
	C698.339417,611.279236 647.343994,611.277893 596.348572,611.283020 
	C594.691772,611.283142 593.034973,611.283020 591.116577,611.283020 
	C587.356689,625.414429 583.658875,639.387085 579.919495,653.348572 
	C574.967834,671.836304 570.070007,690.339478 564.892334,708.763977 
	C564.312195,710.828430 562.319519,712.735046 560.547119,714.182556 
	C554.109985,719.440308 546.512878,720.070679 538.480103,719.849426 
	C525.184753,719.483337 511.872070,719.749939 497.890656,719.749939 
	C501.575562,705.867249 505.109772,692.565247 508.636963,679.261353 
	C521.572144,630.472595 534.306396,581.629028 547.588501,532.934875 
	C550.637207,521.757935 554.757874,510.704559 559.782898,500.267212 
	C574.754150,469.170898 600.889832,454.095276 634.429443,451.126007 
	C647.342651,449.982819 660.387756,450.089844 673.373962,450.055481 
	C719.536133,449.933289 765.698730,449.995514 811.861206,449.988007 
	C813.655457,449.987701 815.449646,449.987976 818.464111,449.987976 
	C816.302002,455.577789 814.560852,460.338593 812.629944,465.021149 
	C807.435669,477.617676 802.002502,490.118805 797.026245,502.799927 
	C795.751892,506.047363 794.185547,506.912628 790.873901,506.904266 
	C748.211365,506.797089 705.548157,506.777374 662.885681,506.906281 
	C656.412903,506.925812 649.896362,507.479462 643.482971,508.377594 
	C635.374268,509.513245 628.213623,512.978333 622.110962,519.119385 
z"/>
<path fill="#92B737" opacity="1.000000" stroke="none" 
	d="
M931.028870,506.825134 
	C927.568481,507.269897 924.105042,507.692413 920.648193,508.163116 
	C903.078430,510.555603 890.055115,519.642700 883.095825,535.878479 
	C878.404053,546.824341 874.835388,558.345459 871.781494,569.878540 
	C866.634277,589.317200 862.162964,608.939880 857.725342,628.557068 
	C856.826477,632.530579 856.891541,636.866028 857.284302,640.960510 
	C858.400024,652.590454 863.681091,659.035217 875.522583,661.775208 
	C882.901794,663.482788 890.658264,664.202087 898.250854,664.239136 
	C942.042725,664.453003 985.836182,664.331055 1029.629150,664.323059 
	C1032.738403,664.322510 1035.847656,664.322998 1039.985229,664.322998 
	C1033.298584,682.396912 1026.980225,699.475586 1019.948120,716.799194 
	C988.299622,717.371887 957.365417,717.822083 926.429688,717.976990 
	C910.469666,718.056946 894.507141,717.505493 878.545471,717.487000 
	C875.021362,717.482910 871.495972,718.525879 867.971191,719.086731 
	C867.225464,719.094971 866.479736,719.103271 865.264954,718.650635 
	C861.525452,718.142639 858.255066,718.095520 854.984619,718.048401 
	C834.140991,715.471069 814.752686,709.767761 801.391846,691.965210 
	C790.751892,677.788208 787.982849,661.143921 790.806580,644.456238 
	C794.820312,620.735657 800.605957,597.284790 806.373718,573.901062 
	C810.631042,556.640930 815.107361,539.322632 821.167053,522.640930 
	C837.175354,478.571472 869.659973,454.570587 916.008423,452.341980 
	C959.540710,450.248810 1003.222656,451.238647 1046.839233,450.941650 
	C1062.804077,450.832916 1078.770264,450.924164 1095.619507,450.924164 
	C1093.095581,457.802704 1090.850464,464.004791 1088.545654,470.184692 
	C1084.475708,481.098175 1080.407593,492.012756 1076.231689,502.885803 
	C1075.692383,504.290009 1074.516357,505.449738 1073.143311,506.287354 
	C1071.577271,505.572571 1070.503540,505.049805 1069.429321,505.048737 
	C1024.641113,505.004639 979.852783,504.991364 935.064697,505.080475 
	C933.718323,505.083160 932.374084,506.218079 931.028870,506.825134 
z"/>
<path fill="#FBFBFC" opacity="1.000000" stroke="none" 
	d="
M697.144836,242.773972 
	C677.118103,243.914459 660.520203,252.377991 645.127258,263.693481 
	C638.957214,268.229187 633.067993,273.145203 626.981995,277.797882 
	C624.875671,279.408112 622.701538,281.081360 620.292297,282.091156 
	C618.645264,282.781525 615.834412,283.147736 614.832764,282.238678 
	C613.821533,281.321014 613.651489,278.259308 614.407654,276.814636 
	C618.404785,269.178864 622.103394,261.232697 627.202271,254.355759 
	C644.889038,230.501404 667.529297,213.668701 697.565308,209.105148 
	C730.041321,204.170868 759.999512,211.468536 786.226501,231.167374 
	C798.283142,240.223007 808.773560,251.367813 819.945007,261.597137 
	C836.251099,276.527893 851.108215,278.092407 869.914124,266.709259 
	C873.184814,264.729553 876.363098,262.567200 879.420776,260.271637 
	C886.213257,255.172089 892.749329,249.714249 899.720154,244.878433 
	C902.018921,243.283768 905.331726,243.150803 908.180847,242.349487 
	C907.861450,245.186554 908.215942,248.321487 907.114624,250.812881 
	C899.376343,268.318604 888.214539,283.278656 873.016541,295.077759 
	C856.027100,308.267639 837.552368,310.561462 818.083313,301.657410 
	C810.410889,298.148438 803.333801,293.311096 796.085999,288.913239 
	C792.991272,287.035400 790.153381,284.734314 787.000793,282.484253 
	C774.925049,296.694061 762.989380,310.739075 750.571533,325.351501 
	C753.481934,326.220673 756.129272,326.973511 758.753174,327.800781 
	C782.374268,335.248138 805.404907,343.954956 824.553894,360.369873 
	C840.644409,374.163025 842.423645,390.608582 829.772278,407.520966 
	C827.393494,410.701050 824.648499,413.700928 821.662964,416.316528 
	C810.896057,425.749207 798.922180,433.126007 784.778687,436.321594 
	C782.883850,436.749695 780.714172,435.961426 778.671814,435.736481 
	C779.275146,433.781219 779.455872,431.538971 780.554993,429.920349 
	C785.323547,422.898010 790.595825,416.212341 795.250000,409.118866 
	C804.869080,394.458588 802.936951,386.840973 787.299438,378.797668 
	C769.600037,369.693817 750.161804,366.569885 730.903076,362.568420 
	C718.516541,359.994843 709.209717,362.610077 699.101135,370.483032 
	C670.885681,392.458466 639.906555,409.960266 606.177917,422.323425 
	C570.363953,435.450836 533.537537,440.018188 496.681000,435.838074 
	C512.002197,431.673553 528.682739,428.332306 544.453247,422.521362 
	C560.604675,416.570068 576.460510,409.227783 591.347046,400.598877 
	C606.106812,392.043427 620.191711,381.956635 633.292603,371.009521 
	C646.406616,360.051392 658.709778,347.872040 669.945740,334.987335 
	C681.289307,321.979279 691.364502,307.774536 701.113525,293.492065 
	C710.792175,279.312805 718.645691,264.030487 723.942078,247.065491 
	C715.463928,243.235550 706.643188,242.441010 697.144836,242.773972 
z"/>
<path fill="#F57414" opacity="1.000000" stroke="none" 
	d="
M255.364914,375.092377 
	C271.466125,351.273438 289.918427,329.380829 310.380310,309.242737 
	C389.543976,231.331863 484.868469,186.873245 594.660095,172.781662 
	C646.593140,166.116135 698.049438,169.554581 749.005371,181.304047 
	C750.097290,181.555801 751.159241,181.937698 750.823730,181.837540 
	C565.901917,178.891220 407.611053,239.051407 286.702576,386.129669 
	C278.786255,380.930786 270.684174,378.634277 261.910309,380.122162 
	C257.303009,380.903473 254.619019,380.609985 255.364914,375.092377 
z"/>
<path fill="#F58310" opacity="1.000000" stroke="none" 
	d="
M255.300568,432.338165 
	C253.734131,435.095795 252.167709,437.853455 249.923798,440.811523 
	C247.227203,442.021942 245.208130,443.031921 243.189056,444.041931 
	C244.230026,445.174896 245.270996,446.307861 246.311966,447.440826 
	C240.384033,459.353271 233.986847,471.058228 228.611221,483.214905 
	C207.779984,530.323669 194.544510,579.281311 196.062637,631.220276 
	C197.851822,692.433105 219.869827,745.675171 261.212372,790.920654 
	C295.283630,828.208435 336.332733,855.424194 382.479706,875.348267 
	C383.817932,875.926086 385.026489,876.804199 386.295502,877.542297 
	C386.106567,877.988647 385.917633,878.434937 385.728699,878.881287 
	C382.362457,877.954346 378.982635,877.073914 375.632050,876.093445 
	C323.885712,860.952271 277.617584,836.309448 240.002289,797.027588 
	C201.521805,756.842285 180.229172,708.513428 173.994537,653.535522 
	C167.280640,594.331360 177.945480,537.435181 198.462494,482.065033 
	C202.677139,470.690796 207.761673,459.638947 212.976181,448.407684 
	C217.177261,453.087677 221.821152,456.345123 227.673340,457.727753 
	C231.334656,458.592773 234.257797,456.577393 233.911453,453.524658 
	C233.177429,447.055084 224.066879,439.176605 217.118927,439.003082 
	C219.853119,433.706299 222.587311,428.409546 225.629181,423.310516 
	C225.833344,424.491058 225.942688,425.558136 225.592255,426.443146 
	C223.047653,432.869385 225.492722,437.378693 232.529221,439.068756 
	C237.582275,440.282410 238.692459,439.614441 238.932755,434.220245 
	C239.098755,430.493988 240.858063,429.589813 244.092316,430.201813 
	C247.829346,430.908966 251.564560,431.625610 255.300568,432.338165 
z"/>
<path fill="#FBFBFB" opacity="1.000000" stroke="none" 
	d="
M847.354370,199.182175 
	C841.722778,215.795853 825.508545,224.872421 809.255859,220.801392 
	C793.345886,216.816208 783.062134,201.079285 785.879883,185.029709 
	C788.851074,168.105942 803.571350,156.825851 820.348633,158.616440 
	C836.929565,160.386063 849.362854,174.444092 848.799866,190.965195 
	C848.710388,193.591019 847.951355,196.194031 847.354370,199.182175 
z"/>
<path fill="#8EB434" opacity="1.000000" stroke="none" 
	d="
M449.611450,845.073120 
	C449.085846,846.542969 448.421082,848.232544 447.203827,849.280090 
	C445.858063,850.438110 443.950775,850.915588 442.386322,851.853333 
	C438.948242,853.914368 438.106201,856.780029 440.179840,860.281311 
	C442.080566,863.490662 446.225861,863.961853 449.758331,861.768982 
	C453.099518,859.694824 456.499634,857.615479 460.107574,856.091919 
	C467.933014,852.787231 471.989471,857.940674 475.878601,863.863770 
	C474.629150,864.416931 473.185364,864.677673 471.264801,864.769287 
	C470.526672,864.712402 470.265289,864.824646 470.003906,864.936890 
	C455.374420,867.004517 441.054047,864.693298 427.042908,860.986694 
	C385.383270,849.965759 349.155060,828.734070 316.487366,801.031677 
	C315.106171,799.860474 313.731628,798.681458 312.698151,796.788757 
	C314.190491,797.480713 315.766632,798.034912 317.162903,798.884766 
	C353.275238,820.863098 392.077454,835.597778 433.861481,842.344299 
	C438.993561,843.172913 444.106750,844.118347 449.611450,845.073120 
z"/>
<path fill="#F67C10" opacity="1.000000" stroke="none" 
	d="
M255.287796,432.321625 
	C251.564560,431.625610 247.829346,430.908966 244.092316,430.201813 
	C240.858063,429.589813 239.098755,430.493988 238.932755,434.220245 
	C238.692459,439.614441 237.582275,440.282410 232.529221,439.068756 
	C225.492722,437.378693 223.047653,432.869385 225.592255,426.443146 
	C225.942688,425.558136 225.833344,424.491058 225.900330,423.086731 
	C225.863770,422.665222 225.896362,422.262299 226.226135,421.955872 
	C226.776031,421.383301 226.896820,421.077881 226.918304,420.733154 
	C235.191360,407.170105 243.454895,393.601257 251.750504,380.052032 
	C252.697403,378.505432 253.824051,377.068909 255.116135,375.336853 
	C254.619019,380.609985 257.303009,380.903473 261.910309,380.122162 
	C270.684174,378.634277 278.786255,380.930786 286.433105,386.288055 
	C277.564301,399.840240 268.282959,413.259613 258.428619,426.998840 
	C257.612000,427.934723 257.368378,428.550751 257.124756,429.166748 
	C257.124756,429.166748 257.094818,429.075043 256.881714,429.194580 
	C256.549530,429.661133 256.430420,430.008179 256.311340,430.355225 
	C256.311340,430.355225 256.304962,430.190582 256.037170,430.296814 
	C255.600510,431.023956 255.431671,431.644897 255.262817,432.265808 
	C255.262817,432.265808 255.275024,432.305084 255.287796,432.321625 
z"/>
<path fill="#90B53A" opacity="1.000000" stroke="none" 
	d="
M546.616760,1021.369751 
	C563.329285,1017.731812 577.588074,1024.137207 582.756226,1037.361938 
	C586.662903,1047.358521 585.176331,1056.841309 578.817810,1065.200928 
	C571.818115,1074.403809 561.870789,1077.174194 550.763611,1075.677490 
	C536.646912,1073.775146 527.720398,1064.189941 526.413391,1050.080322 
	C525.287598,1037.927246 533.524719,1026.052612 546.616760,1021.369751 
M562.789551,1063.665283 
	C570.096008,1059.938965 572.755859,1053.702393 571.987000,1045.897949 
	C571.306213,1038.987427 567.475037,1034.220703 560.961670,1031.817017 
	C554.375671,1029.386597 546.601074,1031.666138 542.537476,1037.013550 
	C537.787231,1043.264404 537.576050,1052.254517 542.033203,1058.468628 
	C546.539490,1064.751221 553.569031,1066.686401 562.789551,1063.665283 
z"/>
<path fill="#8FB43A" opacity="1.000000" stroke="none" 
	d="
M826.107178,1021.057434 
	C828.729492,1021.056946 830.885559,1021.056946 833.506226,1021.056946 
	C833.506226,1039.018311 833.506226,1056.708374 833.506226,1074.761475 
	C829.832703,1074.761475 826.135742,1074.761475 821.929077,1074.761475 
	C821.929077,1067.806030 821.929077,1061.051025 821.929077,1053.765137 
	C813.886902,1053.765137 806.343445,1053.765137 798.213440,1053.765137 
	C798.213440,1060.721313 798.213440,1067.630127 798.213440,1074.830200 
	C794.069824,1074.830200 790.496948,1074.830200 786.574341,1074.830200 
	C786.574341,1057.017944 786.574341,1039.292847 786.574341,1021.347656 
	C790.444214,1021.347656 794.005615,1021.347656 798.020020,1021.347656 
	C798.020020,1028.235718 798.020020,1034.822876 798.020020,1041.849976 
	C806.016174,1041.849976 813.571594,1041.849976 821.890259,1041.849976 
	C821.890259,1036.133911 822.024963,1030.364258 821.834473,1024.605225 
	C821.736694,1021.650146 822.936768,1020.701599 826.107178,1021.057434 
z"/>
<path fill="#8EB43A" opacity="1.000000" stroke="none" 
	d="
M625.296509,1075.008911 
	C621.401672,1075.108398 617.923462,1075.108398 613.653259,1075.108398 
	C618.517761,1063.701660 623.106750,1052.885864 627.743164,1042.090454 
	C630.366638,1035.981934 633.255676,1029.979614 635.656799,1023.786682 
	C636.908875,1020.557434 639.258911,1020.694946 641.705017,1020.977600 
	C644.549072,1021.306274 648.082153,1019.316956 649.877075,1023.547546 
	C656.758362,1039.767090 663.761902,1055.934692 670.687500,1072.135498 
	C670.996399,1072.858032 670.989624,1073.715576 671.231812,1075.087891 
	C667.824463,1075.087891 664.608765,1075.562866 661.651978,1074.893677 
	C660.100037,1074.542480 658.261841,1072.376587 657.832520,1070.702148 
	C656.336426,1064.866455 653.023804,1062.438232 647.100586,1063.641846 
	C646.940552,1063.674316 646.766663,1063.666748 646.602661,1063.647949 
	C637.024231,1062.552246 628.072693,1062.615356 625.296509,1075.008911 
M635.739197,1053.290527 
	C640.412720,1053.290527 645.086182,1053.290527 650.389954,1053.290527 
	C647.642883,1046.714478 645.303589,1041.114624 642.539917,1034.498901 
	C639.854004,1041.262573 637.593689,1046.954468 635.739197,1053.290527 
z"/>
<path fill="#8FB53A" opacity="1.000000" stroke="none" 
	d="
M719.869080,1021.692139 
	C731.745911,1018.470032 742.184631,1019.838623 751.375488,1028.829102 
	C748.807739,1031.631592 746.490784,1034.160278 743.963684,1036.918213 
	C738.665222,1032.879761 733.111267,1029.359131 726.500732,1031.369019 
	C723.058105,1032.415771 719.507874,1034.680176 717.144226,1037.387817 
	C711.682068,1043.645142 712.411926,1054.173706 718.019287,1060.343262 
	C724.171814,1067.112549 732.682312,1066.744629 744.092896,1059.124268 
	C746.508728,1061.496338 748.950073,1063.893433 751.374695,1066.274170 
	C744.441345,1074.999268 730.813416,1078.484009 719.448547,1074.572144 
	C708.384949,1070.763794 701.318359,1061.038330 701.023132,1049.214111 
	C700.705627,1036.495605 707.423523,1026.531494 719.869080,1021.692139 
z"/>
<path fill="#8FB53A" opacity="1.000000" stroke="none" 
	d="
M467.944458,1064.568848 
	C476.492401,1065.891602 479.075378,1065.108032 487.241058,1058.654785 
	C489.479462,1061.294434 491.785492,1064.013916 494.134918,1066.784546 
	C485.698364,1077.936768 464.646484,1079.413208 453.064911,1069.332275 
	C441.630981,1059.379883 441.126740,1039.319214 452.038666,1028.505493 
	C463.648163,1017.000549 484.088928,1017.114014 494.333649,1029.053955 
	C492.052399,1031.552979 489.735321,1034.091309 487.139771,1036.934570 
	C481.188416,1032.094727 474.632721,1028.816650 467.349640,1032.072388 
	C463.856720,1033.633911 460.306183,1036.806396 458.544434,1040.171875 
	C453.425049,1049.951050 457.639832,1060.369507 467.944458,1064.568848 
z"/>
<path fill="#EFEFF1" opacity="1.000000" stroke="none" 
	d="
M1006.776489,993.928101 
	C1000.517639,995.199524 996.345886,992.876709 992.767456,987.459717 
	C987.762878,979.883972 981.815491,972.931091 975.378296,964.548645 
	C975.378296,975.028992 975.378296,984.172241 975.378296,993.667175 
	C971.862427,993.667175 968.954041,993.667175 965.680237,993.667175 
	C965.680237,978.832581 965.680237,963.919312 965.679565,949.004883 
	C972.766785,946.978394 974.186035,947.436035 978.272339,952.808044 
	C984.115051,960.488892 990.000977,968.136841 996.694336,976.877380 
	C996.694336,966.739014 996.694336,957.786072 996.694336,948.201233 
	C1000.106262,948.201233 1002.882751,948.201233 1006.183472,948.601929 
	C1006.730530,963.977844 1006.753479,978.952942 1006.776489,993.928101 
z"/>
<path fill="#F0F0F2" opacity="1.000000" stroke="none" 
	d="
M434.868225,961.324036 
	C435.236298,969.059021 431.983856,974.154175 424.905212,977.265747 
	C428.519897,982.695129 432.041840,987.985107 435.615936,993.353455 
	C426.486267,995.325745 425.231049,994.847473 420.462646,987.722595 
	C419.723694,986.618469 418.821167,985.580139 418.305511,984.377869 
	C416.026611,979.064331 412.046600,977.617920 406.292908,979.206604 
	C406.292908,983.782471 406.292908,988.546204 406.292908,993.676575 
	C402.862946,993.676575 399.840576,993.676575 396.506653,993.676575 
	C396.506653,978.665527 396.506653,963.780640 396.506653,948.656311 
	C405.353668,948.656311 414.137970,948.096558 422.811462,948.836365 
	C429.551788,949.411255 433.794983,953.921753 434.868225,961.324036 
M424.839691,963.431335 
	C424.860657,957.329651 420.484467,955.575562 406.349609,957.542603 
	C406.349609,961.592041 406.349609,965.651794 406.349609,970.137939 
	C410.053711,970.137939 413.495148,970.111023 416.935974,970.144897 
	C421.102936,970.185913 423.967163,968.548157 424.839691,963.431335 
z"/>
<path fill="#F2F2F4" opacity="1.000000" stroke="none" 
	d="
M330.759888,986.199219 
	C323.065338,974.771301 324.220825,961.386841 333.353821,953.263245 
	C341.988342,945.583008 356.654297,945.381287 365.647797,952.818970 
	C375.422760,960.903076 376.872009,976.032043 368.829712,986.037354 
	C360.821747,995.999939 345.059021,997.788086 334.632751,989.870178 
	C333.317657,988.871521 332.196075,987.617981 330.759888,986.199219 
M338.401093,979.846191 
	C343.890167,986.375183 351.052063,987.860413 357.282654,983.761780 
	C363.653412,979.570923 365.671173,971.110840 362.032990,963.844666 
	C358.823730,957.435059 351.383270,954.567078 344.655273,957.146240 
	C338.021332,959.689453 334.449860,967.728149 336.561951,975.490845 
	C336.907410,976.760681 337.513214,977.959656 338.401093,979.846191 
z"/>
<path fill="#F2F3F4" opacity="1.000000" stroke="none" 
	d="
M1041.379150,962.667603 
	C1040.736450,967.668518 1039.040649,972.670105 1040.133545,976.961609 
	C1042.718140,987.110901 1054.871094,988.032471 1061.424316,983.929565 
	C1062.918579,982.994080 1062.741455,979.389221 1063.419434,976.668701 
	C1059.428101,976.451050 1056.331909,976.282227 1052.978027,976.099304 
	C1052.978027,973.438232 1052.978027,971.032227 1052.978027,968.388428 
	C1059.285767,968.388428 1065.374512,968.388428 1072.113647,968.388428 
	C1072.113647,974.534973 1072.245605,980.470032 1072.001709,986.389587 
	C1071.953125,987.566589 1070.708130,989.070312 1069.601562,989.767395 
	C1061.583252,994.818176 1052.946777,996.459656 1043.827271,993.361389 
	C1032.629028,989.556885 1026.853516,978.369934 1029.425903,965.973328 
	C1031.859619,954.245178 1042.466675,946.424683 1054.873413,947.430237 
	C1060.747681,947.906250 1066.355591,949.342712 1071.068726,954.075562 
	C1069.236206,956.227112 1067.445801,958.329102 1066.601074,959.320862 
	C1060.268555,958.337891 1054.859985,956.756287 1049.526978,956.979858 
	C1046.812256,957.093628 1044.233521,960.453186 1041.379150,962.667603 
z"/>
<path fill="#F1F2F4" opacity="1.000000" stroke="none" 
	d="
M601.653564,977.932739 
	C604.289795,974.406128 606.811340,971.261230 609.589722,967.796021 
	C605.623962,959.097839 606.507874,953.097778 612.774902,949.459412 
	C619.095398,945.789978 628.047729,947.209167 631.826660,952.479553 
	C635.928040,958.199646 633.945312,963.520447 624.636902,971.155212 
	C626.652771,973.262939 628.644287,975.345215 631.004639,977.813171 
	C632.496216,974.953125 633.692566,972.658997 635.100525,969.959045 
	C637.445984,970.875000 639.695251,971.753418 642.564148,972.873840 
	C640.605713,976.661804 638.818542,980.118469 636.953125,983.726624 
	C638.964355,986.021790 641.019958,988.367676 643.091675,990.731812 
	C636.621399,995.111450 636.621399,995.111450 630.409363,989.720459 
	C622.948975,995.280273 614.873901,997.071411 606.469299,991.863159 
	C601.489380,988.777161 600.318298,983.876038 601.653564,977.932739 
M610.976318,979.838379 
	C612.066772,982.007019 612.604919,985.132019 614.361816,986.146851 
	C618.110107,988.311951 621.833313,986.630066 625.036987,984.181702 
	C624.868408,983.646362 624.864441,983.452942 624.766052,983.348206 
	C623.075867,981.548340 621.383423,979.750488 619.672913,977.969910 
	C615.280090,973.397217 614.735657,973.469482 610.976318,979.838379 
M623.796753,955.582275 
	C623.194946,955.322998 622.612610,954.908752 621.988098,954.830627 
	C618.810730,954.432922 615.802856,955.266907 616.077881,958.888000 
	C616.241150,961.038452 618.046265,963.889282 619.923950,964.864929 
	C622.030090,965.959351 625.465698,961.595642 625.274963,958.462708 
	C625.227661,957.684937 624.714905,956.935425 623.796753,955.582275 
z"/>
<path fill="#F1F1F3" opacity="1.000000" stroke="none" 
	d="
M852.269653,990.892395 
	C851.624084,992.222778 851.003601,993.909851 850.357056,993.919922 
	C839.766785,994.083923 829.173279,994.036255 818.388672,994.036255 
	C818.388672,978.637146 818.388672,963.745544 818.388672,948.513794 
	C829.503662,948.513794 840.397705,948.513794 851.638184,948.513794 
	C851.638184,951.069031 851.638184,953.622437 851.638184,956.739624 
	C843.924622,956.739624 836.201355,956.739624 828.275635,956.739624 
	C828.275635,960.217346 828.275635,963.141724 828.275635,966.584473 
	C835.094482,966.584473 841.825195,966.584473 848.757202,966.584473 
	C848.757202,969.549744 848.757202,972.002930 848.757202,975.033447 
	C842.021667,975.033447 835.303894,975.033447 828.350098,975.033447 
	C828.350098,978.693237 828.350098,981.784912 828.350098,985.302856 
	C836.113403,985.302856 843.840698,985.302856 852.282593,985.302856 
	C852.282593,987.300049 852.282593,988.884399 852.269653,990.892395 
z"/>
<path fill="#F0F1F3" opacity="1.000000" stroke="none" 
	d="
M238.204071,959.648560 
	C233.606354,958.311890 229.377808,956.609375 225.047745,956.292114 
	C223.197632,956.156555 221.135834,958.910217 219.170258,960.351135 
	C220.792923,961.970520 222.139069,964.284180 224.096237,965.063660 
	C228.079056,966.649963 232.470581,967.175842 236.550339,968.560913 
	C243.068375,970.773865 246.006424,974.778076 245.910294,980.574158 
	C245.808578,986.706543 242.266724,991.794189 236.087723,993.550110 
	C225.862747,996.455811 216.455750,994.509705 207.578690,987.791077 
	C209.569641,985.402222 211.329514,983.290649 212.454773,981.940552 
	C218.023376,983.560669 222.805252,985.353516 227.749664,986.248474 
	C231.019699,986.840210 234.951294,986.202881 235.629349,982.005066 
	C236.323410,977.708435 232.377258,977.179443 229.433136,976.288940 
	C225.623627,975.136658 221.627914,974.528503 217.915909,973.141418 
	C211.725616,970.828247 209.224197,967.016357 209.331528,961.123657 
	C209.441879,955.064209 212.547272,951.003235 218.087601,949.065735 
	C227.531357,945.763184 236.288101,947.280273 245.180542,953.822266 
	C242.663361,956.101990 240.597748,957.972778 238.204071,959.648560 
z"/>
<path fill="#F0F0F2" opacity="1.000000" stroke="none" 
	d="
M521.089111,992.982544 
	C517.795654,991.364136 514.881714,989.848572 511.322632,987.997498 
	C513.474121,985.380615 515.189514,983.294189 516.989380,981.104980 
	C519.068970,982.214600 520.705750,983.555969 522.552673,983.978149 
	C526.684631,984.922607 530.924438,985.874023 535.113403,985.844055 
	C536.696777,985.832642 539.059021,983.340454 539.540588,981.565308 
	C539.839294,980.464111 537.559937,977.815613 535.933777,977.205933 
	C531.758301,975.640503 527.230652,975.043884 522.973145,973.661499 
	C515.480896,971.228699 511.902191,965.875854 513.681274,958.889771 
	C514.437256,955.921204 516.464600,952.671875 518.889648,950.844849 
	C526.483093,945.124146 540.895081,946.758301 548.196167,953.779541 
	C546.671753,955.861694 545.123047,957.977051 543.986206,959.529785 
	C538.875977,958.290649 534.328003,956.867004 529.671387,956.177490 
	C526.822144,955.755615 523.293396,956.752136 523.533875,960.273804 
	C523.656250,962.066223 526.424866,964.350342 528.494202,965.195496 
	C532.616516,966.879028 537.166687,967.482666 541.384094,968.973694 
	C546.501099,970.782654 549.717773,974.373291 549.822693,980.117065 
	C549.931030,986.044189 547.345398,990.450500 541.921021,992.836060 
	C535.196899,995.793152 528.316223,995.397278 521.089111,992.982544 
z"/>
<path fill="#EFF0F1" opacity="1.000000" stroke="none" 
	d="
M763.897095,960.022156 
	C763.907959,965.514404 763.790710,970.516174 763.958008,975.508301 
	C764.184143,982.255493 767.846680,985.919006 774.122314,985.984436 
	C780.315857,986.049011 784.125061,982.397461 784.291260,975.579651 
	C784.509399,966.632629 784.344788,957.676331 784.344788,948.440308 
	C787.776550,948.440308 790.687500,948.440308 793.894104,948.440308 
	C793.894104,958.868225 794.487976,969.182617 793.723938,979.395447 
	C792.987671,989.235840 785.360596,994.700806 774.310425,994.802795 
	C763.230286,994.905029 756.167236,989.605835 754.413818,979.838745 
	C754.179016,978.530762 753.976257,977.195312 753.970581,975.871643 
	C753.932068,966.891785 753.950439,957.911804 753.950439,948.557617 
	C757.274109,948.557617 760.320740,948.557617 763.895630,948.557617 
	C763.895630,952.289978 763.895630,955.908630 763.897095,960.022156 
z"/>
<path fill="#EFF0F1" opacity="1.000000" stroke="none" 
	d="
M268.806000,948.119019 
	C275.626190,948.139282 282.446686,948.127197 289.266541,948.187622 
	C298.804169,948.272034 305.353455,953.598694 306.080292,961.794983 
	C306.932281,971.402466 301.860138,977.966736 291.818695,979.389465 
	C287.451691,980.008301 282.924072,979.493469 278.136871,979.493469 
	C278.136871,984.700684 278.136871,989.150635 278.136871,993.979614 
	C275.004272,993.979614 272.206085,993.979614 268.942902,993.485474 
	C268.587311,978.033875 268.696655,963.076416 268.806000,948.119019 
M289.896118,956.971008 
	C286.145630,956.971008 282.395142,956.971008 278.552795,956.971008 
	C278.552795,961.876343 278.552795,966.403320 278.552795,971.107483 
	C282.030457,971.107483 285.164948,971.176392 288.295135,971.089844 
	C292.124420,970.984009 295.230713,969.557556 295.897369,965.410156 
	C296.551392,961.341797 295.159393,958.215820 289.896118,956.971008 
z"/>
<path fill="#82AC27" opacity="1.000000" stroke="none" 
	d="
M256.000000,1052.132812 
	C241.017120,1052.118774 226.533768,1052.039795 212.051682,1052.140259 
	C208.517563,1052.164795 206.983444,1051.167480 208.434540,1047.203857 
	C272.049072,1047.203857 335.723236,1047.203857 399.483490,1047.203857 
	C401.634552,1052.518433 398.100250,1052.134888 394.836548,1052.134155 
	C348.724365,1052.124146 302.612183,1052.131104 256.000000,1052.132812 
z"/>
<path fill="#82AC28" opacity="1.000000" stroke="none" 
	d="
M935.000000,1052.143677 
	C917.843872,1052.140869 901.187134,1052.198853 884.532776,1052.025879 
	C883.046387,1052.010620 880.576660,1050.753296 880.288574,1049.630371 
	C879.491028,1046.521606 882.206421,1046.906372 884.147400,1046.906250 
	C945.775146,1046.904541 1007.402893,1046.914307 1069.030640,1046.930908 
	C1069.844116,1046.931030 1070.657593,1047.043579 1071.564087,1047.110474 
	C1073.447021,1051.702271 1070.952393,1052.121094 1067.416992,1052.118652 
	C1023.444641,1052.088135 979.472351,1052.123657 935.000000,1052.143677 
z"/>
<path fill="#EFF0F1" opacity="1.000000" stroke="none" 
	d="
M698.858154,948.154663 
	C709.971802,948.154663 721.085449,948.154663 732.438477,948.154663 
	C732.438477,951.265930 732.438477,953.838074 732.438477,956.832153 
	C724.602844,956.832153 717.015320,956.832153 709.082703,956.832153 
	C709.082703,960.458557 709.082703,963.674500 709.082703,967.453613 
	C715.901062,967.453613 722.652405,967.453613 729.671631,967.453613 
	C729.671631,970.583191 729.671631,973.163879 729.671631,976.235596 
	C722.778381,976.235596 716.014160,976.235596 708.792725,976.235596 
	C708.792725,982.305847 708.792725,987.900696 708.792725,994.004028 
	C705.405579,994.004028 702.464417,994.004028 699.094849,993.488037 
	C698.730286,978.032898 698.794189,963.093811 698.858154,948.154663 
z"/>
<path fill="#EFF0F1" opacity="1.000000" stroke="none" 
	d="
M478.887878,969.015442 
	C478.892639,977.468384 478.892639,985.424744 478.892639,993.732544 
	C475.545502,993.732544 472.521912,993.732544 468.954224,993.732544 
	C468.954224,981.495422 468.954224,969.450684 468.954224,957.010620 
	C463.999969,957.010620 459.567444,957.010620 454.806213,957.010620 
	C454.806213,954.043396 454.806213,951.477844 454.806213,948.506958 
	C467.390289,948.506958 479.943207,948.506958 492.885681,948.506958 
	C492.885681,951.025879 492.885681,953.727722 492.885681,956.863159 
	C488.458252,956.863159 484.041779,956.863159 478.883087,956.863159 
	C478.883087,961.017456 478.883087,964.768127 478.887878,969.015442 
z"/>
<path fill="#F1F2F3" opacity="1.000000" stroke="none" 
	d="
M874.822388,984.890137 
	C874.822815,972.636169 874.822815,960.815125 874.822815,948.590881 
	C878.140503,948.590881 881.192505,948.590881 884.896301,948.590881 
	C884.896301,960.698792 884.896301,972.912231 884.896301,985.452087 
	C892.790710,985.452087 900.057800,985.452087 907.612061,985.452087 
	C907.612061,988.347107 907.612061,990.902283 907.612061,993.784607 
	C896.673889,993.784607 885.935974,993.784607 874.822021,993.784607 
	C874.822021,990.926453 874.822021,988.124695 874.822388,984.890137 
z"/>
<path fill="#EFEFF1" opacity="1.000000" stroke="none" 
	d="
M930.379272,961.018738 
	C930.380615,956.567322 930.380615,952.612122 930.380615,948.420593 
	C933.873840,948.420593 936.813232,948.420593 940.089355,948.420593 
	C940.089355,963.519836 940.089355,978.586243 940.089355,993.842896 
	C937.012939,993.842896 934.056030,993.842896 930.377869,993.842896 
	C930.377869,983.019897 930.377869,972.267456 930.379272,961.018738 
z"/>
<path fill="#82A737" opacity="1.000000" stroke="none" 
	d="
M868.339355,719.261780 
	C871.495972,718.525879 875.021362,717.482910 878.545471,717.487000 
	C894.507141,717.505493 910.469666,718.056946 926.429688,717.976990 
	C957.365417,717.822083 988.299622,717.371887 1019.717773,717.068359 
	C1019.973511,720.879639 1017.064453,719.838135 1014.962646,719.841064 
	C982.345947,719.886719 949.729065,719.915894 917.112488,719.849304 
	C900.977295,719.816406 884.842468,719.580750 868.339355,719.261780 
z"/>
<path fill="#A3C939" opacity="1.000000" stroke="none" 
	d="
M931.492188,506.883240 
	C932.374084,506.218079 933.718323,505.083160 935.064697,505.080475 
	C979.852783,504.991364 1024.641113,505.004639 1069.429321,505.048737 
	C1070.503540,505.049805 1071.577271,505.572571 1072.795654,506.195740 
	C1064.643188,506.634735 1056.346436,506.799286 1048.049316,506.813293 
	C1009.351379,506.878754 970.653503,506.902618 931.492188,506.883240 
z"/>
<path fill="#F67C10" opacity="1.000000" stroke="none" 
	d="
M216.925537,439.299072 
	C224.066879,439.176605 233.177429,447.055084 233.911453,453.524658 
	C234.257797,456.577393 231.334656,458.592773 227.673340,457.727753 
	C221.821152,456.345123 217.177261,453.087677 213.235291,448.178467 
	C214.219696,445.185059 215.475906,442.390045 216.925537,439.299072 
z"/>
<path fill="#00021B" opacity="1.000000" stroke="none" 
	d="
M386.705872,663.733887 
	C382.194336,664.149353 377.386810,664.373657 372.579193,664.374939 
	C327.885468,664.387207 283.191742,664.358765 238.498001,664.354431 
	C236.674026,664.354248 234.850067,664.477173 232.578690,664.676086 
	C233.330643,664.207031 234.529221,663.079529 235.729431,663.077759 
	C285.479675,663.004822 335.230072,663.031799 384.980438,663.064514 
	C385.456970,663.064819 385.933380,663.309021 386.705872,663.733887 
z"/>
<path fill="#00021B" opacity="1.000000" stroke="none" 
	d="
M698.432983,948.297974 
	C698.794189,963.093811 698.730286,978.032898 698.681152,993.435181 
	C698.135010,992.841492 697.093689,991.788086 697.085876,990.727112 
	C696.987061,977.349792 697.022583,963.971313 697.090271,950.593384 
	C697.093933,949.874512 697.688416,949.158569 698.432983,948.297974 
z"/>
<path fill="#00021B" opacity="1.000000" stroke="none" 
	d="
M268.386963,948.278442 
	C268.696655,963.076416 268.587311,978.033875 268.522614,993.454956 
	C268.055054,992.977539 267.103577,992.039612 267.096771,991.094788 
	C266.999207,977.605530 267.014618,964.115173 267.068573,950.625427 
	C267.071472,949.895020 267.654785,949.166992 268.386963,948.278442 
z"/>
<path fill="#00021B" opacity="1.000000" stroke="none" 
	d="
M1007.110474,993.677246 
	C1006.753479,978.952942 1006.730530,963.977844 1006.604492,948.549438 
	C1006.993103,949.209045 1007.905640,950.319397 1007.912476,951.435242 
	C1007.995300,964.971680 1007.949524,978.508789 1007.908508,992.045715 
	C1007.907104,992.506470 1007.605957,992.966248 1007.110474,993.677246 
z"/>
<path fill="#8EB434" opacity="1.000000" stroke="none" 
	d="
M478.620239,842.225708 
	C479.169189,846.566406 476.796906,847.465515 473.110992,846.532898 
	C471.877808,846.220886 470.665192,845.827698 469.196777,845.185852 
	C472.048492,844.011475 475.146667,843.122864 478.620239,842.225708 
z"/>
<path fill="#F67C10" opacity="1.000000" stroke="none" 
	d="
M246.301208,447.410004 
	C245.270996,446.307861 244.230026,445.174896 243.189056,444.041931 
	C245.208130,443.031921 247.227203,442.021942 249.659607,441.018463 
	C249.291580,442.541168 248.510239,444.057343 247.206512,445.908081 
	C246.539871,446.604034 246.395630,446.965424 246.251389,447.326843 
	C246.251389,447.326843 246.290451,447.379181 246.301208,447.410004 
z"/>
<path fill="#82A737" opacity="1.000000" stroke="none" 
	d="
M855.339355,718.228394 
	C858.255066,718.095520 861.525452,718.142639 864.901367,718.563232 
	C861.902588,718.760620 858.798401,718.584473 855.339355,718.228394 
z"/>
<path fill="#8EB434" opacity="1.000000" stroke="none" 
	d="
M463.665436,844.832336 
	C461.181793,845.229492 458.385986,845.408386 455.306396,845.317139 
	C457.799530,844.902588 460.576385,844.758362 463.665436,844.832336 
z"/>
<path fill="#F58310" opacity="1.000000" stroke="none" 
	d="
M255.525177,432.107208 
	C255.431671,431.644897 255.600510,431.023956 256.110748,430.333862 
	C256.230591,430.826019 256.009064,431.387299 255.525177,432.107208 
z"/>
<path fill="#F58310" opacity="1.000000" stroke="none" 
	d="
M257.393982,428.992310 
	C257.368378,428.550751 257.612000,427.934723 258.189636,427.210022 
	C258.236816,427.673523 257.950012,428.245697 257.393982,428.992310 
z"/>
<path fill="#F58310" opacity="1.000000" stroke="none" 
	d="
M226.700241,420.871948 
	C226.896820,421.077881 226.776031,421.383301 226.362518,421.806671 
	C226.273468,421.646179 226.377823,421.328461 226.700241,420.871948 
z"/>
<path fill="#89B02C" opacity="1.000000" stroke="none" 
	d="
M470.253052,864.983704 
	C470.265289,864.824646 470.526672,864.712402 470.887451,864.740845 
	C470.825348,864.931152 470.663788,864.980835 470.253052,864.983704 
z"/>
<path fill="#F58310" opacity="1.000000" stroke="none" 
	d="
M256.565674,430.235535 
	C256.430420,430.008179 256.549530,429.661133 256.929932,429.194702 
	C257.067566,429.422150 256.943817,429.768982 256.565674,430.235535 
z"/>
<path fill="#F58310" opacity="1.000000" stroke="none" 
	d="
M246.521667,447.191162 
	C246.395630,446.965424 246.539871,446.604034 246.943573,446.088348 
	C247.065979,446.307861 246.928955,446.681671 246.521667,447.191162 
z"/>
<path fill="#F57414" opacity="1.000000" stroke="none" 
	d="
M754.512207,183.484665 
	C754.551453,183.494354 754.472961,183.474976 754.512207,183.484665 
z"/>
<path fill="#091A31" opacity="1.000000" stroke="none" 
	d="
M753.016602,768.025879 
	C753.109131,768.004639 753.183533,767.962952 753.107483,767.945801 
	C752.957031,767.970398 752.998535,768.005554 753.016602,768.025879 
z"/>
<path fill="#0A1B30" opacity="1.000000" stroke="none" 
	d="
M562.422607,1063.822998 
	C553.569031,1066.686401 546.539490,1064.751221 542.033203,1058.468628 
	C537.576050,1052.254517 537.787231,1043.264404 542.537476,1037.013550 
	C546.601074,1031.666138 554.375671,1029.386597 560.961670,1031.817017 
	C567.475037,1034.220703 571.306213,1038.987427 571.987000,1045.897949 
	C572.755859,1053.702393 570.096008,1059.938965 562.422607,1063.822998 
z"/>
<path fill="#0E1D33" opacity="1.000000" stroke="none" 
	d="
M635.536255,1052.968506 
	C637.593689,1046.954468 639.854004,1041.262573 642.539917,1034.498901 
	C645.303589,1041.114624 647.642883,1046.714478 650.389954,1053.290527 
	C645.086182,1053.290527 640.412720,1053.290527 635.536255,1052.968506 
z"/>
<path fill="#112036" opacity="1.000000" stroke="none" 
	d="
M424.827026,963.819702 
	C423.967163,968.548157 421.102936,970.185913 416.935974,970.144897 
	C413.495148,970.111023 410.053711,970.137939 406.349609,970.137939 
	C406.349609,965.651794 406.349609,961.592041 406.349609,957.542603 
	C420.484467,955.575562 424.860657,957.329651 424.827026,963.819702 
z"/>
<path fill="#0E1D33" opacity="1.000000" stroke="none" 
	d="
M338.199890,979.518799 
	C337.513214,977.959656 336.907410,976.760681 336.561951,975.490845 
	C334.449860,967.728149 338.021332,959.689453 344.655273,957.146240 
	C351.383270,954.567078 358.823730,957.435059 362.032990,963.844666 
	C365.671173,971.110840 363.653412,979.570923 357.282654,983.761780 
	C351.052063,987.860413 343.890167,986.375183 338.199890,979.518799 
z"/>
<path fill="#13233A" opacity="1.000000" stroke="none" 
	d="
M611.065369,979.444580 
	C614.735657,973.469482 615.280090,973.397217 619.672913,977.969910 
	C621.383423,979.750488 623.075867,981.548340 624.766052,983.348206 
	C624.864441,983.452942 624.868408,983.646362 625.036987,984.181702 
	C621.833313,986.630066 618.110107,988.311951 614.361816,986.146851 
	C612.604919,985.132019 612.066772,982.007019 611.065369,979.444580 
z"/>
<path fill="#112036" opacity="1.000000" stroke="none" 
	d="
M624.106445,955.877563 
	C624.714905,956.935425 625.227661,957.684937 625.274963,958.462708 
	C625.465698,961.595642 622.030090,965.959351 619.923950,964.864929 
	C618.046265,963.889282 616.241150,961.038452 616.077881,958.888000 
	C615.802856,955.266907 618.810730,954.432922 621.988098,954.830627 
	C622.612610,954.908752 623.194946,955.322998 624.106445,955.877563 
z"/>
<path fill="#13233A" opacity="1.000000" stroke="none" 
	d="
M290.320984,957.055786 
	C295.159393,958.215820 296.551392,961.341797 295.897369,965.410156 
	C295.230713,969.557556 292.124420,970.984009 288.295135,971.089844 
	C285.164948,971.176392 282.030457,971.107483 278.552795,971.107483 
	C278.552795,966.403320 278.552795,961.876343 278.552795,956.971008 
	C282.395142,956.971008 286.145630,956.971008 290.320984,957.055786 
z"/>
</svg>